<?xml version="1.0" encoding="utf-8"?>
<!-- Generator: Adobe Illustrator 13.0.2, SVG Export Plug-In  -->
<!DOCTYPE svg [
	<!ENTITY ns_flows "http://ns.adobe.com/Flows/1.0/">
]>
<svg version="1.2" baseProfile="tiny"
	 xmlns="http://www.w3.org/2000/svg" xmlns:xlink="http://www.w3.org/1999/xlink" xmlns:a="http://ns.adobe.com/AdobeSVGViewerExtensions/3.0/"
	 x="0px" y="0px" width="135px" height="35px" viewBox="-0.133 -0.039 135 35" xml:space="preserve">
<defs>
</defs>
<path fill="#880000" d="M5.041,18.774C2.581,18.774,0,16.635,0,12.956h3.321c0,1.219,0.78,2,1.72,2c0.94,0,1.7-0.92,1.7-1.955
	c0-0.874-0.54-1.655-1.28-1.885l1.561-3.45c1.9,0.989,3.041,2.714,3.041,5.335C10.062,16.29,7.622,18.774,5.041,18.774z
	 M6.001,5.712c-0.06-0.621-0.46-1.495-1.14-1.495s-1.2,0.644-1.2,1.426c0,1.012,0.92,1.265,1.7,1.449l-1.58,3.472
	C1.96,10.081,0.3,8.356,0.3,5.689c0-3.012,2.061-5.312,4.561-5.312c2.34,0,4.521,2.069,4.521,5.335H6.001z"/>
<path fill="#880000" d="M11.455,9.575c0-4.737,3.081-8.692,7.082-9.198V4.31c-2.161,0.46-3.761,2.645-3.761,5.266
	c0,2.622,1.6,4.829,3.761,5.289v3.817C14.536,18.175,11.455,14.312,11.455,9.575z M23.157,6.333c-0.72-1.035-1.72-1.748-2.86-2.023
	c0,0,0-4.806,0-3.909c2.22,0.253,4.201,1.609,5.501,3.587L23.157,6.333z M20.297,18.681c0-0.022,0-3.84,0-3.84
	c1.14-0.276,2.141-0.989,2.86-2l2.641,2.322C24.478,17.095,22.517,18.405,20.297,18.681z"/>
<path fill="#880000" d="M27.573,18.336V0.814h3.321v17.522H27.573z"/>
<path fill="#880000" d="M32.476,18.336V0.814h3.321v17.522H32.476z M37.537,4.631V0.814h5.781v3.817H37.537z M37.537,11.484V7.667
	h5.781v3.817H37.537z"/>
<path fill="#880000" d="M44.902,18.336V0.814h3.321v17.522H44.902z"/>
<path fill="#880000" d="M60.167,18.774c-2.46,0-5.041-2.139-5.041-5.818h3.321c0,1.219,0.78,2,1.72,2c0.94,0,1.7-0.92,1.7-1.955
	c0-0.874-0.54-1.655-1.28-1.885l1.561-3.45c1.9,0.989,3.041,2.714,3.041,5.335C65.188,16.29,62.748,18.774,60.167,18.774z
	 M61.127,5.712c-0.06-0.621-0.46-1.495-1.14-1.495s-1.2,0.644-1.2,1.426c0,1.012,0.92,1.265,1.7,1.449l-1.58,3.472
	c-1.82-0.483-3.481-2.208-3.481-4.875c0-3.012,2.061-5.312,4.561-5.312c2.34,0,4.521,2.069,4.521,5.335H61.127z"/>
<path fill="#880000" d="M66.005,4.631V0.814h10.242v3.817H66.005z M69.466,18.336V6.632h3.321v11.705H69.466z"/>
<path fill="#880000" d="M94.132,18.336V0.814h3.32v17.522H94.132z M101.113,11.484h-1.921V7.667h1.921c0.7,0,1.28-0.712,1.28-1.518
	c0-0.805-0.561-1.518-1.28-1.518h-1.921V0.814h1.921c2.66,0,4.581,2.391,4.581,5.334C105.694,9.115,103.613,11.484,101.113,11.484z
	 M102.054,18.336l-1.661-5.45c1.24,0,2.681-0.368,3.301-0.828l1.921,6.278H102.054z"/>
<path fill="#880000" d="M107.198,18.336V0.814h3.32v17.522H107.198z"/>
<path fill="#880000" d="M112.101,18.336V0.814h3.32v17.522H112.101z M117.161,4.631V0.814h6.062v3.817H117.161z M117.161,11.484
	V7.667h6.062v3.817H117.161z M117.161,18.336v-3.817h6.062v3.817H117.161z"/>
<path fill="#880000" d="M129.848,18.774c-2.461,0-5.041-2.139-5.041-5.818h3.32c0,1.219,0.78,2,1.721,2s1.7-0.92,1.7-1.955
	c0-0.874-0.54-1.655-1.28-1.885l1.561-3.45c1.9,0.989,3.041,2.714,3.041,5.335C134.869,16.29,132.428,18.774,129.848,18.774z
	 M130.808,5.712c-0.06-0.621-0.46-1.495-1.14-1.495c-0.681,0-1.201,0.644-1.201,1.426c0,1.012,0.921,1.265,1.701,1.449l-1.581,3.472
	c-1.82-0.483-3.48-2.208-3.48-4.875c0-3.012,2.061-5.312,4.562-5.312c2.34,0,4.521,2.069,4.521,5.335H130.808z"/>
<path fill="#FFFF00" d="M92.935,6.783c-1.456-5.014-6.626-7.874-11.546-6.392c-4.92,1.483-7.729,6.75-6.272,11.765
	c1.456,5.012,6.624,7.874,11.545,6.392C91.581,17.064,94.391,11.797,92.935,6.783z"/>
<circle cx="83.727" cy="9.532" r="8.617"/>
<ellipse transform="matrix(0.9589 -0.2838 0.2838 0.9589 0.9279 24.2808)" fill="#880000" cx="84.273" cy="8.938" rx="7.246" ry="7.54"/>
<ellipse transform="matrix(0.9589 -0.2837 0.2837 0.9589 1.1574 24.5876)" fill="#993333" cx="85.457" cy="8.298" rx="5.19" ry="6.463"/>
<ellipse transform="matrix(0.9589 -0.2838 0.2838 0.9589 1.317 24.9399)" fill="#FF9977" cx="86.718" cy="7.925" rx="2.938" ry="4.504"/>
<path d="M81.151,14.636c0,0,2.192,1.161,3.48,1.161l-2.836-2.709L81.151,14.636z"/>
<path fill="#FFFF00" d="M91.606,2.211c2.277-0.106,3.831,0.29,4.173,1.229c0.738,2.032-4.473,5.834-11.639,8.489
	c-7.168,2.656-13.577,3.161-14.317,1.129c-0.342-0.939,0.588-2.255,2.393-3.662c-5.311,2.853-8.54,5.676-7.943,7.315
	c0.898,2.472,10.152,1.316,20.669-2.579c10.516-3.897,18.312-9.061,17.412-11.532C101.757,0.961,97.484,0.917,91.606,2.211z"/>
<path d="M101.899,2.422c-0.557-1.515-4.683-1.503-10.374-0.231c2.2-0.126,3.695,0.224,4.014,1.092
	c0.689,1.878-4.39,5.471-11.345,8.023c-0.941,0.346-1.87,0.655-2.771,0.926c-0.084-0.073-0.171-0.148-0.257-0.229l0.974-1.364
	l-2.097-0.11l0.174,0.314c-0.061-0.099-0.121-0.203-0.184-0.314h0.01l-0.046-0.081l-0.002,0.008
	c-0.033-0.063-0.068-0.129-0.102-0.197l0.104,0.189l0.653-1.355l-1.29-0.168c-0.003-0.011-0.006-0.021-0.01-0.032l0.611-0.831
	l-0.829-0.053c-0.282-1.409-0.217-2.57-0.217-2.57S78.4,7.5,78.529,9.693c0.072,1.229,0.55,2.338,0.956,3.073
	c-4.852,1.216-8.605,1.199-9.134-0.237c-0.318-0.868,0.596-2.103,2.356-3.431c-5.165,2.713-8.319,5.375-7.763,6.89
	c0.84,2.285,9.792,1.1,19.996-2.646C95.146,9.596,102.738,4.708,101.899,2.422z"/>
<path fill="#880000" d="M2.457,22.918l2.159,5.543l2.256-5.945l2.159,5.945l2.293-5.543h1.359l-3.706,8.819l-2.132-5.876
	l-2.224,5.881l-3.523-8.824H2.457z"/>
<path fill="#880000" d="M12.51,28.558c0-0.756,0.271-1.398,0.811-1.929c0.541-0.529,1.2-0.795,1.977-0.795
	c0.781,0,1.443,0.268,1.987,0.801c0.537,0.533,0.806,1.188,0.806,1.966c0,0.784-0.271,1.441-0.811,1.972
	c-0.544,0.525-1.212,0.789-2.003,0.789c-0.784,0-1.441-0.269-1.971-0.806C12.775,30.026,12.51,29.36,12.51,28.558z M13.746,28.58
	c0,0.522,0.14,0.937,0.419,1.241c0.287,0.308,0.664,0.461,1.133,0.461c0.473,0,0.851-0.151,1.133-0.456s0.424-0.711,0.424-1.22
	c0-0.508-0.142-0.914-0.424-1.219c-0.287-0.308-0.664-0.462-1.133-0.462c-0.462,0-0.836,0.154-1.123,0.462
	S13.746,28.092,13.746,28.58z"/>
<path fill="#880000" d="M19.325,25.98h1.208v0.468c0.222-0.233,0.419-0.393,0.591-0.479c0.175-0.09,0.383-0.135,0.623-0.135
	c0.319,0,0.652,0.104,0.999,0.312l-0.553,1.105c-0.229-0.164-0.453-0.246-0.671-0.246c-0.659,0-0.988,0.497-0.988,1.492v2.713
	h-1.208V25.98z"/>
<path fill="#880000" d="M24.771,22.139v9.072h-1.208v-9.072H24.771z"/>
<path fill="#880000" d="M30.114,22.139h1.214v9.072h-1.214v-0.548c-0.476,0.466-1.015,0.698-1.617,0.698
	c-0.716,0-1.311-0.262-1.783-0.784c-0.469-0.533-0.704-1.199-0.704-1.998c0-0.78,0.234-1.433,0.704-1.955
	c0.465-0.526,1.051-0.79,1.756-0.79c0.612,0,1.16,0.251,1.644,0.752V22.139z M27.246,28.58c0,0.501,0.134,0.909,0.403,1.225
	c0.276,0.318,0.623,0.478,1.042,0.478c0.448,0,0.809-0.153,1.085-0.461c0.276-0.319,0.414-0.724,0.414-1.215
	c0-0.49-0.138-0.895-0.414-1.213c-0.276-0.312-0.634-0.468-1.074-0.468c-0.416,0-0.763,0.157-1.042,0.473
	C27.383,27.716,27.246,28.111,27.246,28.58z"/>
<path fill="#880000" d="M37.642,22.918v7.117h2.438v1.176h-3.689v-8.293H37.642z"/>
<path fill="#880000" d="M40.81,23.805c0-0.212,0.077-0.395,0.23-0.549c0.154-0.153,0.339-0.23,0.554-0.23
	c0.219,0,0.404,0.077,0.559,0.23c0.154,0.15,0.231,0.336,0.231,0.554s-0.077,0.405-0.231,0.559c-0.15,0.153-0.335,0.231-0.554,0.231
	c-0.218,0-0.404-0.078-0.559-0.231C40.887,24.215,40.81,24.027,40.81,23.805z M42.2,25.98v5.231h-1.208V25.98H42.2z"/>
<path fill="#880000" d="M44.934,27.108v4.104h-1.208v-4.104H43.21V25.98h0.516v-1.917h1.208v1.917h0.94v1.128H44.934z"/>
<path fill="#880000" d="M51.513,28.88h-3.75c0.033,0.43,0.172,0.771,0.42,1.026c0.246,0.25,0.563,0.375,0.95,0.375
	c0.301,0,0.55-0.071,0.747-0.215c0.193-0.143,0.413-0.408,0.66-0.795l1.021,0.57c-0.157,0.268-0.324,0.498-0.499,0.689
	c-0.176,0.191-0.364,0.35-0.564,0.473c-0.2,0.124-0.417,0.214-0.65,0.271c-0.232,0.058-0.484,0.086-0.757,0.086
	c-0.78,0-1.407-0.251-1.88-0.752c-0.473-0.505-0.709-1.175-0.709-2.009c0-0.827,0.229-1.497,0.688-2.009
	c0.462-0.505,1.074-0.758,1.837-0.758c0.77,0,1.379,0.246,1.826,0.736c0.444,0.487,0.666,1.162,0.666,2.025L51.513,28.88z
	 M50.271,27.892c-0.168-0.645-0.575-0.967-1.22-0.967c-0.146,0-0.284,0.022-0.413,0.067s-0.246,0.109-0.352,0.193
	s-0.196,0.186-0.271,0.303c-0.075,0.119-0.133,0.253-0.172,0.403H50.271z"/>
<path fill="#880000" d="M52.789,25.98h1.208v0.468c0.223-0.233,0.42-0.393,0.592-0.479c0.175-0.09,0.383-0.135,0.623-0.135
	c0.318,0,0.651,0.104,0.998,0.312l-0.553,1.105c-0.229-0.164-0.453-0.246-0.672-0.246c-0.658,0-0.988,0.497-0.988,1.492v2.713
	h-1.208V25.98z"/>
<path fill="#880000" d="M60.641,25.98h1.214v5.231h-1.214v-0.548c-0.498,0.466-1.033,0.698-1.605,0.698
	c-0.724,0-1.322-0.262-1.795-0.784c-0.469-0.533-0.703-1.199-0.703-1.998c0-0.784,0.234-1.438,0.703-1.96
	c0.47-0.523,1.057-0.785,1.762-0.785c0.609,0,1.155,0.251,1.639,0.752V25.98z M57.772,28.58c0,0.501,0.134,0.909,0.403,1.225
	c0.275,0.318,0.623,0.478,1.041,0.478c0.448,0,0.81-0.153,1.086-0.461c0.275-0.319,0.413-0.724,0.413-1.215
	c0-0.49-0.138-0.895-0.413-1.213c-0.276-0.312-0.635-0.468-1.074-0.468c-0.416,0-0.764,0.157-1.043,0.473
	C57.91,27.716,57.772,28.111,57.772,28.58z"/>
<path fill="#880000" d="M64.582,27.108v4.104h-1.208v-4.104h-0.516V25.98h0.516v-1.917h1.208v1.917h0.94v1.128H64.582z"/>
<path fill="#880000" d="M67.508,25.98v3.003c0,0.866,0.343,1.299,1.026,1.299s1.026-0.433,1.026-1.299V25.98h1.208v3.029
	c0,0.419-0.052,0.78-0.155,1.085c-0.101,0.272-0.274,0.518-0.521,0.736c-0.408,0.354-0.928,0.531-1.558,0.531
	c-0.627,0-1.144-0.178-1.552-0.531c-0.251-0.219-0.429-0.464-0.532-0.736c-0.101-0.243-0.15-0.605-0.15-1.085V25.98H67.508z"/>
<path fill="#880000" d="M72.25,25.98h1.208v0.468c0.223-0.233,0.42-0.393,0.592-0.479c0.175-0.09,0.383-0.135,0.623-0.135
	c0.318,0,0.651,0.104,0.998,0.312l-0.553,1.105c-0.229-0.164-0.453-0.246-0.672-0.246c-0.658,0-0.988,0.497-0.988,1.492v2.713H72.25
	V25.98z"/>
<path fill="#880000" d="M81.01,28.88h-3.75c0.033,0.43,0.172,0.771,0.42,1.026c0.246,0.25,0.563,0.375,0.95,0.375
	c0.301,0,0.55-0.071,0.747-0.215c0.193-0.143,0.413-0.408,0.66-0.795l1.021,0.57c-0.157,0.268-0.324,0.498-0.499,0.689
	c-0.176,0.191-0.364,0.35-0.564,0.473c-0.2,0.124-0.417,0.214-0.65,0.271c-0.232,0.058-0.484,0.086-0.757,0.086
	c-0.78,0-1.407-0.251-1.88-0.752c-0.473-0.505-0.709-1.175-0.709-2.009c0-0.827,0.229-1.497,0.688-2.009
	c0.462-0.505,1.074-0.758,1.837-0.758c0.77,0,1.379,0.246,1.826,0.736c0.444,0.487,0.666,1.162,0.666,2.025L81.01,28.88z
	 M79.769,27.892c-0.168-0.645-0.575-0.967-1.22-0.967c-0.146,0-0.284,0.022-0.413,0.067s-0.246,0.109-0.352,0.193
	s-0.196,0.186-0.271,0.303c-0.075,0.119-0.133,0.253-0.172,0.403H79.769z"/>
<path fill="#880000" d="M87.12,27.844v3.367h-1.251v-8.293h1.418c0.694,0,1.219,0.049,1.573,0.145
	c0.358,0.098,0.673,0.279,0.945,0.549c0.477,0.465,0.714,1.053,0.714,1.762c0,0.759-0.254,1.36-0.762,1.805
	c-0.509,0.443-1.194,0.666-2.058,0.666H87.12z M87.12,26.684h0.468c1.148,0,1.724-0.442,1.724-1.327
	c0-0.856-0.593-1.284-1.778-1.284H87.12V26.684z"/>
<path fill="#880000" d="M92.741,25.98v3.003c0,0.866,0.343,1.299,1.026,1.299s1.026-0.433,1.026-1.299V25.98h1.208v3.029
	c0,0.419-0.052,0.78-0.155,1.085c-0.101,0.272-0.274,0.518-0.521,0.736c-0.408,0.354-0.928,0.531-1.558,0.531
	c-0.627,0-1.144-0.178-1.552-0.531c-0.251-0.219-0.429-0.464-0.532-0.736c-0.101-0.243-0.15-0.605-0.15-1.085V25.98H92.741z"/>
<path fill="#880000" d="M98.691,22.139v4.447c0.484-0.501,1.031-0.752,1.645-0.752c0.705,0,1.292,0.264,1.762,0.79
	c0.469,0.522,0.703,1.175,0.703,1.955c0,0.806-0.236,1.472-0.709,1.998c-0.469,0.522-1.062,0.784-1.777,0.784
	c-0.605,0-1.146-0.232-1.623-0.698v0.548h-1.208v-9.072H98.691z M101.565,28.633c0-0.501-0.136-0.909-0.408-1.225
	c-0.275-0.322-0.621-0.483-1.036-0.483c-0.444,0-0.807,0.155-1.086,0.468c-0.275,0.308-0.413,0.709-0.413,1.203
	c0,0.508,0.136,0.914,0.408,1.219c0.272,0.312,0.63,0.467,1.074,0.467c0.419,0,0.767-0.155,1.042-0.467
	C101.426,29.5,101.565,29.106,101.565,28.633z"/>
<path fill="#880000" d="M105.243,22.139v9.072h-1.208v-9.072H105.243z"/>
<path fill="#880000" d="M106.548,23.805c0-0.212,0.077-0.395,0.23-0.549c0.154-0.153,0.339-0.23,0.554-0.23
	c0.219,0,0.404,0.077,0.559,0.23c0.154,0.15,0.231,0.336,0.231,0.554s-0.077,0.405-0.231,0.559c-0.15,0.153-0.335,0.231-0.554,0.231
	c-0.218,0-0.404-0.078-0.559-0.231C106.625,24.215,106.548,24.027,106.548,23.805z M107.938,25.98v5.231h-1.208V25.98H107.938z"/>
<path fill="#880000" d="M112.466,26.872l-0.999,0.531c-0.157-0.322-0.353-0.482-0.585-0.482c-0.111,0-0.206,0.036-0.285,0.109
	s-0.118,0.168-0.118,0.282c0,0.2,0.232,0.399,0.698,0.597c0.641,0.275,1.072,0.529,1.295,0.762c0.222,0.233,0.332,0.547,0.332,0.94
	c0,0.505-0.186,0.928-0.559,1.268c-0.361,0.322-0.798,0.483-1.311,0.483c-0.877,0-1.498-0.428-1.863-1.283l1.031-0.479
	c0.144,0.251,0.252,0.41,0.328,0.479c0.146,0.136,0.322,0.203,0.525,0.203c0.408,0,0.613-0.186,0.613-0.559
	c0-0.215-0.158-0.415-0.473-0.602c-0.122-0.061-0.244-0.119-0.365-0.177c-0.122-0.058-0.246-0.116-0.371-0.177
	c-0.351-0.172-0.598-0.344-0.741-0.516c-0.183-0.219-0.274-0.5-0.274-0.844c0-0.455,0.156-0.831,0.468-1.128
	c0.318-0.297,0.705-0.446,1.16-0.446C111.643,25.834,112.14,26.18,112.466,26.872z"/>
<path fill="#880000" d="M113.846,22.139h1.208v4.275c0.43-0.387,0.904-0.58,1.424-0.58c0.591,0,1.063,0.192,1.418,0.575
	c0.301,0.333,0.451,0.864,0.451,1.595v3.207h-1.209v-3.094c0-0.419-0.074-0.723-0.223-0.91c-0.148-0.188-0.388-0.282-0.717-0.282
	c-0.423,0-0.72,0.131-0.892,0.392c-0.168,0.266-0.253,0.721-0.253,1.365v2.529h-1.208V22.139z"/>
<path fill="#880000" d="M119.65,23.805c0-0.212,0.077-0.395,0.23-0.549c0.154-0.153,0.339-0.23,0.554-0.23
	c0.219,0,0.404,0.077,0.559,0.23c0.154,0.15,0.231,0.336,0.231,0.554s-0.077,0.405-0.231,0.559c-0.15,0.153-0.335,0.231-0.554,0.231
	c-0.218,0-0.404-0.078-0.559-0.231C119.728,24.215,119.65,24.027,119.65,23.805z M121.041,25.98v5.231h-1.208V25.98H121.041z"/>
<path fill="#880000" d="M122.528,25.98h1.214v0.483c0.423-0.419,0.898-0.629,1.429-0.629c0.608,0,1.083,0.192,1.423,0.575
	c0.294,0.326,0.441,0.857,0.441,1.595v3.207h-1.215V28.29c0-0.516-0.071-0.872-0.215-1.068c-0.139-0.201-0.394-0.301-0.762-0.301
	c-0.401,0-0.687,0.132-0.854,0.396c-0.165,0.262-0.247,0.719-0.247,1.37v2.524h-1.214V25.98z"/>
<path fill="#880000" d="M133.576,31.088c0,0.246-0.008,0.464-0.024,0.652c-0.016,0.188-0.038,0.354-0.067,0.496
	c-0.086,0.395-0.254,0.732-0.504,1.016c-0.473,0.544-1.123,0.816-1.95,0.816c-0.698,0-1.272-0.188-1.724-0.564
	c-0.466-0.387-0.734-0.922-0.807-1.605h1.215c0.046,0.258,0.123,0.457,0.23,0.596c0.251,0.326,0.616,0.489,1.096,0.489
	c0.885,0,1.326-0.542,1.326-1.628v-0.73c-0.479,0.491-1.032,0.736-1.659,0.736c-0.713,0-1.296-0.258-1.751-0.773
	c-0.458-0.522-0.688-1.176-0.688-1.961c0-0.762,0.213-1.41,0.639-1.943c0.459-0.566,1.064-0.85,1.816-0.85
	c0.658,0,1.206,0.246,1.643,0.736V25.98h1.209V31.088z M132.416,28.606c0-0.508-0.136-0.914-0.408-1.219
	c-0.275-0.312-0.629-0.467-1.059-0.467c-0.458,0-0.819,0.17-1.084,0.51c-0.24,0.305-0.36,0.698-0.36,1.182
	c0,0.477,0.12,0.866,0.36,1.171c0.261,0.333,0.623,0.499,1.084,0.499c0.463,0,0.828-0.168,1.096-0.504
	C132.293,29.473,132.416,29.083,132.416,28.606z"/>
</svg>
